<svg width="61" height="60" viewBox="0 0 61 60" fill="none" xmlns="http://www.w3.org/2000/svg">
<path d="M51.125 9.375H9.875C8.88044 9.375 7.92661 9.77009 7.22335 10.4733C6.52009 11.1766 6.125 12.1304 6.125 13.125V46.875C6.125 47.8696 6.52009 48.8234 7.22335 49.5266C7.92661 50.2299 8.88044 50.625 9.875 50.625H51.125C52.1196 50.625 53.0734 50.2299 53.7766 49.5266C54.4799 48.8234 54.875 47.8696 54.875 46.875V13.125C54.875 12.1304 54.4799 11.1766 53.7766 10.4733C53.0734 9.77009 52.1196 9.375 51.125 9.375ZM37.0625 20.625C37.6188 20.625 38.1625 20.7899 38.625 21.099C39.0876 21.408 39.448 21.8473 39.6609 22.3612C39.8738 22.8751 39.9295 23.4406 39.821 23.9862C39.7124 24.5318 39.4446 25.0329 39.0512 25.4262C38.6579 25.8196 38.1568 26.0874 37.6112 26.196C37.0656 26.3045 36.5001 26.2488 35.9862 26.0359C35.4723 25.823 35.033 25.4626 34.724 25C34.415 24.5375 34.25 23.9938 34.25 23.4375C34.25 22.6916 34.5463 21.9762 35.0738 21.4488C35.6012 20.9213 36.3166 20.625 37.0625 20.625ZM9.875 46.875V40.3125L22.0625 28.125L40.8125 46.875H9.875ZM51.125 46.875H46.1164L37.6789 38.4375L42.3664 33.75L51.125 42.5109V46.875Z" fill="#888888"/>
</svg>
