<svg width="23" height="23" viewBox="0 0 23 23" fill="none" xmlns="http://www.w3.org/2000/svg">
<path d="M21.125 0.5625H7.125C6.7769 0.5625 6.44306 0.700781 6.19692 0.946922C5.95078 1.19306 5.8125 1.5269 5.8125 1.875V5.8125H1.875C1.5269 5.8125 1.19306 5.95078 0.946922 6.19692C0.700781 6.44306 0.5625 6.7769 0.5625 7.125V21.125C0.5625 21.4731 0.700781 21.8069 0.946922 22.0531C1.19306 22.2992 1.5269 22.4375 1.875 22.4375H15.875C16.2231 22.4375 16.5569 22.2992 16.8031 22.0531C17.0492 21.8069 17.1875 21.4731 17.1875 21.125V17.1875H21.125C21.4731 17.1875 21.8069 17.0492 22.0531 16.8031C22.2992 16.5569 22.4375 16.2231 22.4375 15.875V1.875C22.4375 1.5269 22.2992 1.19306 22.0531 0.946922C21.8069 0.700781 21.4731 0.5625 21.125 0.5625ZM14.5625 19.8125H3.1875V8.4375H14.5625V19.8125ZM19.8125 14.5625H17.1875V7.125C17.1875 6.7769 17.0492 6.44306 16.8031 6.19692C16.5569 5.95078 16.2231 5.8125 15.875 5.8125H8.4375V3.1875H19.8125V14.5625Z" fill="#A8A8A8"/>
</svg>
