<svg width="48" height="48" viewBox="0 0 48 48" fill="none" xmlns="http://www.w3.org/2000/svg">
<rect width="48" height="48" rx="24" fill="#B5662C" fill-opacity="0.1"/>
<path d="M25.8535 15.1465C25.9472 15.2402 25.9999 15.3674 25.9999 15.5C25.9999 15.6326 25.9472 15.7597 25.8535 15.8535L24.707 17L25.8535 18.1465C25.9446 18.2408 25.995 18.3671 25.9938 18.4982C25.9927 18.6293 25.9401 18.7547 25.8474 18.8474C25.7547 18.9401 25.6293 18.9927 25.4982 18.9938C25.3671 18.995 25.2408 18.9446 25.1465 18.8535L24 17.707L22.8535 18.8535C22.807 18.8999 22.7519 18.9367 22.6912 18.9618C22.6305 18.9869 22.5655 18.9999 22.4998 18.9998C22.4341 18.9998 22.3691 18.9868 22.3085 18.9617C22.2478 18.9365 22.1927 18.8997 22.1462 18.8532C22.0998 18.8068 22.063 18.7516 22.0379 18.6909C22.0128 18.6303 21.9999 18.5652 21.9999 18.4996C21.9999 18.4339 22.0129 18.3689 22.038 18.3082C22.0632 18.2475 22.1 18.1924 22.1465 18.146L23.293 17L22.1465 15.8535C22.1001 15.807 22.0633 15.7519 22.0381 15.6912C22.013 15.6305 22.0001 15.5655 22.0001 15.4998C22.0002 15.4341 22.0131 15.3691 22.0383 15.3084C22.0634 15.2478 22.1003 15.1927 22.1468 15.1462C22.1932 15.0998 22.2483 15.063 22.309 15.0379C22.3697 15.0128 22.4348 14.9999 22.5004 14.9999C22.5661 14.9999 22.6311 15.0129 22.6918 15.038C22.7525 15.0632 22.8076 15.1 22.854 15.1465L24 16.293L25.1465 15.1465C25.2403 15.0527 25.3674 15.0001 25.5 15.0001C25.6326 15.0001 25.7597 15.0527 25.8535 15.1465ZM21.599 28.364C21.9338 28.4755 22.2944 28.4833 22.6337 28.3862C22.9729 28.2891 23.2749 28.0917 23.5 27.82V33.0115L17.5 30.75V26.998L21.599 28.364Z" fill="#B5662C"/>
<path fill-rule="evenodd" clip-rule="evenodd" d="M30.5 30.75L24.5 33.0115V27.82C24.725 28.0917 25.027 28.2891 25.3663 28.3862C25.7055 28.4833 26.0662 28.4755 26.401 28.364L30.5 26.998V30.75ZM28.658 29.7245C28.7838 29.6826 28.8878 29.5924 28.9472 29.4738C29.0066 29.3552 29.0164 29.2178 28.9745 29.092C28.9325 28.9661 28.8424 28.8621 28.7238 28.8027C28.6051 28.7434 28.4678 28.7336 28.342 28.7755L26.092 29.5255C25.9661 29.5674 25.8621 29.6576 25.8027 29.7762C25.7434 29.8948 25.7335 30.0321 25.7755 30.158C25.8174 30.2838 25.9075 30.3879 26.0262 30.4472C26.1448 30.5066 26.2821 30.5164 26.408 30.4745L28.658 29.7245ZM24.1635 19.5275C24.0575 19.4908 23.9424 19.4908 23.8365 19.5275L17.3375 21.7775L17.326 21.781C17.2385 21.8134 17.162 21.8697 17.105 21.9435L15.11 24.4375C15.0596 24.5004 15.0251 24.5745 15.0095 24.6535C14.994 24.7326 14.9977 24.8143 15.0205 24.8915C15.0433 24.9688 15.0844 25.0395 15.1404 25.0974C15.1964 25.1554 15.2655 25.199 15.342 25.2245L22.092 27.4745C22.1942 27.5085 22.3046 27.5085 22.4069 27.4746C22.5091 27.4408 22.5977 27.3748 22.6595 27.2865L24 25.3715L25.34 27.2865C25.4017 27.3749 25.4904 27.4409 25.5927 27.4748C25.6951 27.5087 25.8057 27.5086 25.908 27.4745L32.658 25.2245C32.7344 25.1991 32.8036 25.1555 32.8597 25.0976C32.9157 25.0396 32.9569 24.969 32.9797 24.8917C33.0025 24.8144 33.0063 24.7327 32.9908 24.6536C32.9753 24.5746 32.9408 24.5004 32.8905 24.4375L30.8955 21.9435C30.8358 21.8663 30.7548 21.8085 30.6625 21.777L24.1635 19.5275ZM24 23.971L28.9715 22.25L24 20.529L19.0285 22.25L24 23.971Z" fill="#B5662C"/>
</svg>
