<svg width="25" height="22" viewBox="0 0 25 22" fill="none" xmlns="http://www.w3.org/2000/svg">
<path d="M24.0584 3.54033C23.9922 3.38043 23.8801 3.24375 23.7362 3.14758C23.5923 3.0514 23.4232 3.00005 23.2501 3.00001H19.9218C19.4565 2.20834 18.7942 1.55053 17.9994 1.09055C17.2046 0.630572 16.3043 0.384071 15.3861 0.375014C14.7019 0.366041 14.0229 0.493985 13.389 0.75132C12.755 1.00865 12.179 1.39018 11.6947 1.87345C11.1962 2.3626 10.8006 2.94647 10.531 3.59073C10.2615 4.235 10.1235 4.92664 10.1251 5.62501V6.29111C5.72168 5.12955 2.11997 1.54751 2.08168 1.50923C1.96429 1.3908 1.81551 1.30838 1.65284 1.27168C1.49018 1.23497 1.32042 1.24551 1.16354 1.30206C1.00667 1.3586 0.869222 1.45879 0.767382 1.59083C0.665542 1.72287 0.603553 1.88127 0.588715 2.04736C0.117309 7.27439 1.63543 10.7722 2.99497 12.7858C3.65786 13.7812 4.46429 14.6731 5.38809 15.4327C3.72231 17.35 1.0995 18.3574 1.07106 18.3683C0.94759 18.4145 0.836167 18.4881 0.745117 18.5834C0.654067 18.6788 0.585743 18.7935 0.545251 18.919C0.504758 19.0444 0.493145 19.1775 0.511277 19.308C0.52941 19.4386 0.57682 19.5634 0.649965 19.6731C0.731996 19.7956 1.06012 20.2255 1.86184 20.6269C2.85278 21.1235 4.162 21.375 5.75012 21.375C13.4797 21.375 19.9382 15.4228 20.5978 7.76439L23.8692 4.49408C23.9915 4.37164 24.0748 4.21567 24.1085 4.0459C24.1422 3.87614 24.1247 3.70019 24.0584 3.54033ZM19.1365 6.75705C18.9865 6.90743 18.8963 7.10725 18.8828 7.31923C18.4376 14.2197 12.6714 19.625 5.75012 19.625C4.59512 19.625 3.78137 19.4719 3.21043 19.2881C4.46934 18.6045 6.22481 17.4288 7.35356 15.7356C7.41981 15.6361 7.46495 15.524 7.48619 15.4063C7.50743 15.2886 7.50432 15.1678 7.47706 15.0514C7.44979 14.935 7.39895 14.8254 7.32767 14.7293C7.25639 14.6333 7.16618 14.5529 7.06262 14.4931C7.01122 14.4636 2.25997 11.6122 2.25012 3.99314C4.00012 5.41501 7.19934 7.62111 10.8547 8.2358C10.9799 8.25692 11.1083 8.2505 11.2309 8.217C11.3534 8.1835 11.4672 8.12372 11.5643 8.04181C11.6614 7.95989 11.7395 7.85781 11.7932 7.74266C11.8469 7.62751 11.8748 7.50206 11.8751 7.37501V5.62501C11.8741 5.15826 11.9665 4.69602 12.1468 4.26549C12.3272 3.83497 12.5918 3.44487 12.9251 3.11814C13.2447 2.798 13.6252 2.54516 14.0441 2.37458C14.463 2.204 14.9119 2.11914 15.3642 2.12501C16.7489 2.14251 18.0428 2.98689 18.5842 4.22611C18.6524 4.38191 18.7646 4.51444 18.907 4.60749C19.0494 4.70053 19.2158 4.75006 19.3859 4.75001H21.1359L19.1365 6.75705Z" fill="#787878"/>
</svg>
