<svg width="24" height="24" viewBox="0 0 24 24" fill="none" xmlns="http://www.w3.org/2000/svg">
<path d="M12 0.625C9.75024 0.625 7.551 1.29213 5.68039 2.54203C3.80978 3.79193 2.35182 5.56847 1.49088 7.64698C0.629929 9.72548 0.404666 12.0126 0.843573 14.2192C1.28248 16.4257 2.36584 18.4525 3.95667 20.0433C5.54749 21.6342 7.57432 22.7175 9.78085 23.1564C11.9874 23.5953 14.2745 23.3701 16.353 22.5091C18.4315 21.6482 20.2081 20.1902 21.458 18.3196C22.7079 16.449 23.375 14.2498 23.375 12C23.3718 8.98414 22.1724 6.09271 20.0398 3.96018C17.9073 1.82764 15.0159 0.628185 12 0.625ZM12.875 21.5845V14.625H15.5C15.7321 14.625 15.9546 14.5328 16.1187 14.3687C16.2828 14.2046 16.375 13.9821 16.375 13.75C16.375 13.5179 16.2828 13.2954 16.1187 13.1313C15.9546 12.9672 15.7321 12.875 15.5 12.875H12.875V10.25C12.875 9.78587 13.0594 9.34075 13.3876 9.01256C13.7158 8.68437 14.1609 8.5 14.625 8.5H16.375C16.6071 8.5 16.8296 8.40781 16.9937 8.24372C17.1578 8.07962 17.25 7.85706 17.25 7.625C17.25 7.39294 17.1578 7.17038 16.9937 7.00628C16.8296 6.84219 16.6071 6.75 16.375 6.75H14.625C13.6967 6.75 12.8065 7.11875 12.1501 7.77513C11.4938 8.4315 11.125 9.32174 11.125 10.25V12.875H8.5C8.26794 12.875 8.04538 12.9672 7.88129 13.1313C7.71719 13.2954 7.625 13.5179 7.625 13.75C7.625 13.9821 7.71719 14.2046 7.88129 14.3687C8.04538 14.5328 8.26794 14.625 8.5 14.625H11.125V21.5845C8.65837 21.3594 6.3735 20.1919 4.74564 18.3251C3.11778 16.4583 2.27227 14.0358 2.38497 11.5614C2.49768 9.08711 3.55992 6.75148 5.35074 5.04037C7.14157 3.32925 9.52312 2.37439 12 2.37439C14.4769 2.37439 16.8584 3.32925 18.6493 5.04037C20.4401 6.75148 21.5023 9.08711 21.615 11.5614C21.7277 14.0358 20.8822 16.4583 19.2544 18.3251C17.6265 20.1919 15.3416 21.3594 12.875 21.5845Z" fill="#787878"/>
</svg>
