<svg width="48" height="48" viewBox="0 0 48 48" fill="none" xmlns="http://www.w3.org/2000/svg">
<rect width="48" height="48" rx="24" fill="#36B52C" fill-opacity="0.1"/>
<path d="M24 17.5C24.9283 17.5 25.8185 17.8687 26.4749 18.5251C27.1313 19.1815 27.5 20.0717 27.5 21C27.5 21.9283 27.1313 22.8185 26.4749 23.4749C25.8185 24.1313 24.9283 24.5 24 24.5C23.0717 24.5 22.1815 24.1313 21.5251 23.4749C20.8687 22.8185 20.5 21.9283 20.5 21C20.5 20.0717 20.8687 19.1815 21.5251 18.5251C22.1815 17.8687 23.0717 17.5 24 17.5ZM17 20C17.56 20 18.08 20.15 18.53 20.42C18.38 21.85 18.8 23.27 19.66 24.38C19.16 25.34 18.16 26 17 26C16.2044 26 15.4413 25.6839 14.8787 25.1213C14.3161 24.5587 14 23.7956 14 23C14 22.2044 14.3161 21.4413 14.8787 20.8787C15.4413 20.3161 16.2044 20 17 20ZM31 20C31.7956 20 32.5587 20.3161 33.1213 20.8787C33.6839 21.4413 34 22.2044 34 23C34 23.7956 33.6839 24.5587 33.1213 25.1213C32.5587 25.6839 31.7956 26 31 26C29.84 26 28.84 25.34 28.34 24.38C29.2119 23.2544 29.6166 21.8362 29.47 20.42C29.92 20.15 30.44 20 31 20ZM17.5 30.25C17.5 28.18 20.41 26.5 24 26.5C27.59 26.5 30.5 28.18 30.5 30.25V32H17.5V30.25ZM12 32V30.5C12 29.11 13.89 27.94 16.45 27.6C15.86 28.28 15.5 29.22 15.5 30.25V32H12ZM36 32H32.5V30.25C32.5 29.22 32.14 28.28 31.55 27.6C34.11 27.94 36 29.11 36 30.5V32Z" fill="#36B52C"/>
</svg>
