<svg width="48" height="48" viewBox="0 0 48 48" fill="none" xmlns="http://www.w3.org/2000/svg">
<rect width="48" height="48" rx="24" fill="#AB2CB5" fill-opacity="0.2"/>
<path fill-rule="evenodd" clip-rule="evenodd" d="M33.1 20.004C33.045 20 32.984 20 32.92 20H30.395C28.327 20 26.558 21.628 26.558 23.75C26.558 25.872 28.328 27.5 30.395 27.5H32.92C32.984 27.5 33.045 27.5 33.102 27.496C33.527 27.4704 33.9282 27.2911 34.2309 26.9916C34.5335 26.6921 34.7169 26.2927 34.747 25.868C34.751 25.808 34.751 25.743 34.751 25.683V21.817C34.751 21.757 34.751 21.692 34.747 21.632C34.7169 21.2073 34.5335 20.8079 34.2309 20.5084C33.9282 20.2089 33.527 20.0296 33.102 20.004H33.1ZM30.172 24.75C30.704 24.75 31.135 24.302 31.135 23.75C31.135 23.198 30.704 22.75 30.172 22.75C29.639 22.75 29.208 23.198 29.208 23.75C29.208 24.302 29.639 24.75 30.172 24.75Z" fill="#AB2CB5"/>
<path fill-rule="evenodd" clip-rule="evenodd" d="M32.918 29C32.9526 28.9986 32.987 29.0054 33.0184 29.0198C33.0499 29.0342 33.0775 29.0558 33.099 29.0829C33.1206 29.11 33.1354 29.1418 33.1424 29.1757C33.1493 29.2096 33.1481 29.2446 33.139 29.278C32.939 29.99 32.62 30.598 32.109 31.108C31.36 31.858 30.411 32.189 29.239 32.347C28.099 32.5 26.644 32.5 24.806 32.5H22.694C20.856 32.5 19.4 32.5 18.261 32.347C17.089 32.189 16.14 31.857 15.391 31.109C14.643 30.36 14.311 29.411 14.153 28.239C14 27.099 14 25.644 14 23.806V23.694C14 21.856 14 20.4 14.153 19.26C14.311 18.088 14.643 17.139 15.391 16.39C16.14 15.642 17.089 15.31 18.261 15.152C19.401 15 20.856 15 22.694 15H24.806C26.644 15 28.1 15 29.239 15.153C30.411 15.311 31.36 15.643 32.109 16.391C32.62 16.903 32.939 17.51 33.139 18.222C33.1481 18.2554 33.1493 18.2904 33.1424 18.3243C33.1354 18.3582 33.1206 18.39 33.099 18.4171C33.0775 18.4442 33.0499 18.4658 33.0184 18.4802C32.987 18.4946 32.9526 18.5014 32.918 18.5H30.394C27.557 18.5 25.057 20.74 25.057 23.75C25.057 26.76 27.557 29 30.394 29H32.918ZM19 27.5C18.8011 27.5 18.6103 27.421 18.4697 27.2803C18.329 27.1397 18.25 26.9489 18.25 26.75V20.75C18.25 20.5511 18.329 20.3603 18.4697 20.2197C18.6103 20.079 18.8011 20 19 20C19.1989 20 19.3897 20.079 19.5303 20.2197C19.671 20.3603 19.75 20.5511 19.75 20.75V26.75C19.75 26.9489 19.671 27.1397 19.5303 27.2803C19.3897 27.421 19.1989 27.5 19 27.5Z" fill="#AB2CB5"/>
</svg>
